<mxfile host="app.diagrams.net" modified="2023-12-15T15:34:37.158Z" agent="Mozilla/5.0 (Macintosh; Intel Mac OS X 10.15; rv:120.0) Gecko/20100101 Firefox/120.0" etag="Q66H6dgp5opUY7HMBTyQ" version="22.1.9" type="google" pages="4">
  <diagram id="TqizDNCQG6WRGLxWxvIV" name="layer_0">
    <mxGraphModel grid="1" page="1" gridSize="10" guides="1" tooltips="1" connect="1" arrows="1" fold="1" pageScale="1" pageWidth="827" pageHeight="1169" math="0" shadow="0">
      <root>
        <mxCell id="0" />
        <mxCell id="1" parent="0" />
        <mxCell id="FxxO0IiGsysAPrqf26iN-18" style="edgeStyle=orthogonalEdgeStyle;rounded=0;orthogonalLoop=1;jettySize=auto;html=1;exitX=1;exitY=0.5;exitDx=0;exitDy=0;" edge="1" parent="1" source="FxxO0IiGsysAPrqf26iN-1" target="FxxO0IiGsysAPrqf26iN-8">
          <mxGeometry relative="1" as="geometry" />
        </mxCell>
        <mxCell id="FxxO0IiGsysAPrqf26iN-1" value="" style="ellipse;whiteSpace=wrap;html=1;aspect=fixed;" vertex="1" parent="1">
          <mxGeometry x="80" y="50" width="40" height="40" as="geometry" />
        </mxCell>
        <mxCell id="FxxO0IiGsysAPrqf26iN-17" style="edgeStyle=orthogonalEdgeStyle;rounded=0;orthogonalLoop=1;jettySize=auto;html=1;exitX=1;exitY=0.5;exitDx=0;exitDy=0;entryX=0;entryY=0.5;entryDx=0;entryDy=0;" edge="1" parent="1" source="FxxO0IiGsysAPrqf26iN-2" target="FxxO0IiGsysAPrqf26iN-9">
          <mxGeometry relative="1" as="geometry" />
        </mxCell>
        <mxCell id="FxxO0IiGsysAPrqf26iN-2" value="" style="ellipse;whiteSpace=wrap;html=1;aspect=fixed;" vertex="1" parent="1">
          <mxGeometry x="80" y="110" width="40" height="40" as="geometry" />
        </mxCell>
        <mxCell id="FxxO0IiGsysAPrqf26iN-3" value="..." style="text;html=1;align=center;verticalAlign=middle;resizable=0;points=[];autosize=1;strokeColor=none;fillColor=none;" vertex="1" parent="1">
          <mxGeometry x="85" y="178" width="30" height="30" as="geometry" />
        </mxCell>
        <mxCell id="FxxO0IiGsysAPrqf26iN-14" style="edgeStyle=orthogonalEdgeStyle;rounded=0;orthogonalLoop=1;jettySize=auto;html=1;exitX=1;exitY=0.5;exitDx=0;exitDy=0;" edge="1" parent="1" source="FxxO0IiGsysAPrqf26iN-4" target="FxxO0IiGsysAPrqf26iN-11">
          <mxGeometry relative="1" as="geometry" />
        </mxCell>
        <mxCell id="FxxO0IiGsysAPrqf26iN-25" style="rounded=0;orthogonalLoop=1;jettySize=auto;html=1;exitX=1;exitY=0;exitDx=0;exitDy=0;entryX=0.15;entryY=1.025;entryDx=0;entryDy=0;entryPerimeter=0;" edge="1" parent="1" source="FxxO0IiGsysAPrqf26iN-4" target="FxxO0IiGsysAPrqf26iN-9">
          <mxGeometry relative="1" as="geometry">
            <mxPoint x="210" y="170" as="targetPoint" />
          </mxGeometry>
        </mxCell>
        <mxCell id="FxxO0IiGsysAPrqf26iN-4" value="" style="ellipse;whiteSpace=wrap;html=1;aspect=fixed;" vertex="1" parent="1">
          <mxGeometry x="80" y="230" width="40" height="40" as="geometry" />
        </mxCell>
        <mxCell id="FxxO0IiGsysAPrqf26iN-5" value="" style="shape=curlyBracket;whiteSpace=wrap;html=1;rounded=1;flipH=1;labelPosition=right;verticalLabelPosition=middle;align=left;verticalAlign=middle;size=0.5;direction=north;" vertex="1" parent="1">
          <mxGeometry x="70" y="290" width="60" height="20" as="geometry" />
        </mxCell>
        <mxCell id="FxxO0IiGsysAPrqf26iN-6" value="&lt;font style=&quot;font-size: 16px;&quot;&gt;28&lt;sup&gt;2&lt;/sup&gt;&lt;/font&gt;" style="text;html=1;align=center;verticalAlign=middle;resizable=0;points=[];autosize=1;strokeColor=none;fillColor=none;" vertex="1" parent="1">
          <mxGeometry x="75" y="320" width="50" height="40" as="geometry" />
        </mxCell>
        <mxCell id="FxxO0IiGsysAPrqf26iN-8" value="" style="ellipse;whiteSpace=wrap;html=1;aspect=fixed;" vertex="1" parent="1">
          <mxGeometry x="280" y="50" width="40" height="40" as="geometry" />
        </mxCell>
        <mxCell id="FxxO0IiGsysAPrqf26iN-9" value="" style="ellipse;whiteSpace=wrap;html=1;aspect=fixed;" vertex="1" parent="1">
          <mxGeometry x="280" y="110" width="40" height="40" as="geometry" />
        </mxCell>
        <mxCell id="FxxO0IiGsysAPrqf26iN-10" value="..." style="text;html=1;align=center;verticalAlign=middle;resizable=0;points=[];autosize=1;strokeColor=none;fillColor=none;" vertex="1" parent="1">
          <mxGeometry x="285" y="178" width="30" height="30" as="geometry" />
        </mxCell>
        <mxCell id="FxxO0IiGsysAPrqf26iN-11" value="" style="ellipse;whiteSpace=wrap;html=1;aspect=fixed;" vertex="1" parent="1">
          <mxGeometry x="280" y="230" width="40" height="40" as="geometry" />
        </mxCell>
        <mxCell id="FxxO0IiGsysAPrqf26iN-26" style="rounded=0;orthogonalLoop=1;jettySize=auto;html=1;exitX=0.675;exitY=-0.075;exitDx=0;exitDy=0;entryX=0;entryY=1;entryDx=0;entryDy=0;exitPerimeter=0;" edge="1" parent="1" source="FxxO0IiGsysAPrqf26iN-4" target="FxxO0IiGsysAPrqf26iN-8">
          <mxGeometry relative="1" as="geometry">
            <mxPoint x="296" y="161" as="targetPoint" />
            <mxPoint x="124" y="246" as="sourcePoint" />
          </mxGeometry>
        </mxCell>
        <mxCell id="FxxO0IiGsysAPrqf26iN-27" style="rounded=0;orthogonalLoop=1;jettySize=auto;html=1;exitX=1;exitY=1;exitDx=0;exitDy=0;entryX=0;entryY=0;entryDx=0;entryDy=0;" edge="1" parent="1" source="FxxO0IiGsysAPrqf26iN-2" target="FxxO0IiGsysAPrqf26iN-11">
          <mxGeometry relative="1" as="geometry">
            <mxPoint x="296" y="94" as="targetPoint" />
            <mxPoint x="117" y="237" as="sourcePoint" />
          </mxGeometry>
        </mxCell>
        <mxCell id="FxxO0IiGsysAPrqf26iN-28" style="rounded=0;orthogonalLoop=1;jettySize=auto;html=1;exitX=1;exitY=1;exitDx=0;exitDy=0;entryX=0.5;entryY=0;entryDx=0;entryDy=0;" edge="1" parent="1" source="FxxO0IiGsysAPrqf26iN-1" target="FxxO0IiGsysAPrqf26iN-11">
          <mxGeometry relative="1" as="geometry">
            <mxPoint x="306" y="104" as="targetPoint" />
            <mxPoint x="127" y="247" as="sourcePoint" />
          </mxGeometry>
        </mxCell>
        <mxCell id="FxxO0IiGsysAPrqf26iN-29" style="rounded=0;orthogonalLoop=1;jettySize=auto;html=1;exitX=1;exitY=1;exitDx=0;exitDy=0;entryX=0;entryY=0;entryDx=0;entryDy=0;" edge="1" parent="1" source="FxxO0IiGsysAPrqf26iN-1" target="FxxO0IiGsysAPrqf26iN-9">
          <mxGeometry relative="1" as="geometry">
            <mxPoint x="316" y="114" as="targetPoint" />
            <mxPoint x="137" y="257" as="sourcePoint" />
          </mxGeometry>
        </mxCell>
        <mxCell id="FxxO0IiGsysAPrqf26iN-30" style="rounded=0;orthogonalLoop=1;jettySize=auto;html=1;exitX=1;exitY=0;exitDx=0;exitDy=0;entryX=-0.025;entryY=0.725;entryDx=0;entryDy=0;entryPerimeter=0;" edge="1" parent="1" source="FxxO0IiGsysAPrqf26iN-2" target="FxxO0IiGsysAPrqf26iN-8">
          <mxGeometry relative="1" as="geometry">
            <mxPoint x="326" y="124" as="targetPoint" />
            <mxPoint x="147" y="267" as="sourcePoint" />
          </mxGeometry>
        </mxCell>
        <mxCell id="FxxO0IiGsysAPrqf26iN-31" value="" style="shape=curlyBracket;whiteSpace=wrap;html=1;rounded=1;flipH=1;labelPosition=right;verticalLabelPosition=middle;align=left;verticalAlign=middle;size=0.5;direction=north;" vertex="1" parent="1">
          <mxGeometry x="270" y="290" width="60" height="20" as="geometry" />
        </mxCell>
        <mxCell id="FxxO0IiGsysAPrqf26iN-32" value="&lt;font style=&quot;font-size: 16px;&quot;&gt;10&lt;/font&gt;" style="text;html=1;align=center;verticalAlign=middle;resizable=0;points=[];autosize=1;strokeColor=none;fillColor=none;" vertex="1" parent="1">
          <mxGeometry x="280" y="325" width="40" height="30" as="geometry" />
        </mxCell>
      </root>
    </mxGraphModel>
  </diagram>
  <diagram name="layer_1" id="wRtGquUWSOio1Ds9Ffth">
    <mxGraphModel grid="1" page="1" gridSize="10" guides="1" tooltips="1" connect="1" arrows="1" fold="1" pageScale="1" pageWidth="827" pageHeight="1169" math="0" shadow="0">
      <root>
        <mxCell id="q7oeJMwzmZ5Z2_32WMV1-0" />
        <mxCell id="q7oeJMwzmZ5Z2_32WMV1-1" parent="q7oeJMwzmZ5Z2_32WMV1-0" />
        <mxCell id="q7oeJMwzmZ5Z2_32WMV1-2" style="edgeStyle=orthogonalEdgeStyle;rounded=0;orthogonalLoop=1;jettySize=auto;html=1;exitX=1;exitY=0.5;exitDx=0;exitDy=0;" parent="q7oeJMwzmZ5Z2_32WMV1-1" source="q7oeJMwzmZ5Z2_32WMV1-3" target="q7oeJMwzmZ5Z2_32WMV1-12" edge="1">
          <mxGeometry relative="1" as="geometry" />
        </mxCell>
        <mxCell id="q7oeJMwzmZ5Z2_32WMV1-3" value="" style="ellipse;whiteSpace=wrap;html=1;aspect=fixed;" parent="q7oeJMwzmZ5Z2_32WMV1-1" vertex="1">
          <mxGeometry x="80" y="50" width="40" height="40" as="geometry" />
        </mxCell>
        <mxCell id="q7oeJMwzmZ5Z2_32WMV1-4" style="edgeStyle=orthogonalEdgeStyle;rounded=0;orthogonalLoop=1;jettySize=auto;html=1;exitX=1;exitY=0.5;exitDx=0;exitDy=0;entryX=0;entryY=0.5;entryDx=0;entryDy=0;" parent="q7oeJMwzmZ5Z2_32WMV1-1" source="q7oeJMwzmZ5Z2_32WMV1-5" target="q7oeJMwzmZ5Z2_32WMV1-13" edge="1">
          <mxGeometry relative="1" as="geometry" />
        </mxCell>
        <mxCell id="q7oeJMwzmZ5Z2_32WMV1-5" value="" style="ellipse;whiteSpace=wrap;html=1;aspect=fixed;" parent="q7oeJMwzmZ5Z2_32WMV1-1" vertex="1">
          <mxGeometry x="80" y="110" width="40" height="40" as="geometry" />
        </mxCell>
        <mxCell id="q7oeJMwzmZ5Z2_32WMV1-6" value="..." style="text;html=1;align=center;verticalAlign=middle;resizable=0;points=[];autosize=1;strokeColor=none;fillColor=none;" parent="q7oeJMwzmZ5Z2_32WMV1-1" vertex="1">
          <mxGeometry x="85" y="178" width="30" height="30" as="geometry" />
        </mxCell>
        <mxCell id="q7oeJMwzmZ5Z2_32WMV1-7" style="edgeStyle=orthogonalEdgeStyle;rounded=0;orthogonalLoop=1;jettySize=auto;html=1;exitX=1;exitY=0.5;exitDx=0;exitDy=0;" parent="q7oeJMwzmZ5Z2_32WMV1-1" source="q7oeJMwzmZ5Z2_32WMV1-9" target="q7oeJMwzmZ5Z2_32WMV1-15" edge="1">
          <mxGeometry relative="1" as="geometry" />
        </mxCell>
        <mxCell id="q7oeJMwzmZ5Z2_32WMV1-8" style="rounded=0;orthogonalLoop=1;jettySize=auto;html=1;exitX=1;exitY=0;exitDx=0;exitDy=0;entryX=0.15;entryY=1.025;entryDx=0;entryDy=0;entryPerimeter=0;" parent="q7oeJMwzmZ5Z2_32WMV1-1" source="q7oeJMwzmZ5Z2_32WMV1-9" target="q7oeJMwzmZ5Z2_32WMV1-13" edge="1">
          <mxGeometry relative="1" as="geometry">
            <mxPoint x="210" y="170" as="targetPoint" />
          </mxGeometry>
        </mxCell>
        <mxCell id="q7oeJMwzmZ5Z2_32WMV1-9" value="" style="ellipse;whiteSpace=wrap;html=1;aspect=fixed;" parent="q7oeJMwzmZ5Z2_32WMV1-1" vertex="1">
          <mxGeometry x="80" y="230" width="40" height="40" as="geometry" />
        </mxCell>
        <mxCell id="q7oeJMwzmZ5Z2_32WMV1-10" value="" style="shape=curlyBracket;whiteSpace=wrap;html=1;rounded=1;flipH=1;labelPosition=right;verticalLabelPosition=middle;align=left;verticalAlign=middle;size=0.5;direction=north;" parent="q7oeJMwzmZ5Z2_32WMV1-1" vertex="1">
          <mxGeometry x="70" y="290" width="60" height="20" as="geometry" />
        </mxCell>
        <mxCell id="q7oeJMwzmZ5Z2_32WMV1-11" value="&lt;font style=&quot;font-size: 16px;&quot;&gt;28&lt;sup&gt;2&lt;/sup&gt;&lt;/font&gt;" style="text;html=1;align=center;verticalAlign=middle;resizable=0;points=[];autosize=1;strokeColor=none;fillColor=none;" parent="q7oeJMwzmZ5Z2_32WMV1-1" vertex="1">
          <mxGeometry x="75" y="320" width="50" height="40" as="geometry" />
        </mxCell>
        <mxCell id="q7oeJMwzmZ5Z2_32WMV1-12" value="" style="ellipse;whiteSpace=wrap;html=1;aspect=fixed;" parent="q7oeJMwzmZ5Z2_32WMV1-1" vertex="1">
          <mxGeometry x="280" y="50" width="40" height="40" as="geometry" />
        </mxCell>
        <mxCell id="q7oeJMwzmZ5Z2_32WMV1-13" value="" style="ellipse;whiteSpace=wrap;html=1;aspect=fixed;" parent="q7oeJMwzmZ5Z2_32WMV1-1" vertex="1">
          <mxGeometry x="280" y="110" width="40" height="40" as="geometry" />
        </mxCell>
        <mxCell id="q7oeJMwzmZ5Z2_32WMV1-14" value="..." style="text;html=1;align=center;verticalAlign=middle;resizable=0;points=[];autosize=1;strokeColor=none;fillColor=none;" parent="q7oeJMwzmZ5Z2_32WMV1-1" vertex="1">
          <mxGeometry x="285" y="178" width="30" height="30" as="geometry" />
        </mxCell>
        <mxCell id="q7oeJMwzmZ5Z2_32WMV1-15" value="" style="ellipse;whiteSpace=wrap;html=1;aspect=fixed;" parent="q7oeJMwzmZ5Z2_32WMV1-1" vertex="1">
          <mxGeometry x="280" y="230" width="40" height="40" as="geometry" />
        </mxCell>
        <mxCell id="q7oeJMwzmZ5Z2_32WMV1-16" style="rounded=0;orthogonalLoop=1;jettySize=auto;html=1;exitX=0.675;exitY=-0.075;exitDx=0;exitDy=0;entryX=0;entryY=1;entryDx=0;entryDy=0;exitPerimeter=0;" parent="q7oeJMwzmZ5Z2_32WMV1-1" source="q7oeJMwzmZ5Z2_32WMV1-9" target="q7oeJMwzmZ5Z2_32WMV1-12" edge="1">
          <mxGeometry relative="1" as="geometry">
            <mxPoint x="296" y="161" as="targetPoint" />
            <mxPoint x="124" y="246" as="sourcePoint" />
          </mxGeometry>
        </mxCell>
        <mxCell id="q7oeJMwzmZ5Z2_32WMV1-17" style="rounded=0;orthogonalLoop=1;jettySize=auto;html=1;exitX=1;exitY=1;exitDx=0;exitDy=0;entryX=0;entryY=0;entryDx=0;entryDy=0;" parent="q7oeJMwzmZ5Z2_32WMV1-1" source="q7oeJMwzmZ5Z2_32WMV1-5" target="q7oeJMwzmZ5Z2_32WMV1-15" edge="1">
          <mxGeometry relative="1" as="geometry">
            <mxPoint x="296" y="94" as="targetPoint" />
            <mxPoint x="117" y="237" as="sourcePoint" />
          </mxGeometry>
        </mxCell>
        <mxCell id="q7oeJMwzmZ5Z2_32WMV1-18" style="rounded=0;orthogonalLoop=1;jettySize=auto;html=1;exitX=1;exitY=1;exitDx=0;exitDy=0;entryX=0.5;entryY=0;entryDx=0;entryDy=0;" parent="q7oeJMwzmZ5Z2_32WMV1-1" source="q7oeJMwzmZ5Z2_32WMV1-3" target="q7oeJMwzmZ5Z2_32WMV1-15" edge="1">
          <mxGeometry relative="1" as="geometry">
            <mxPoint x="306" y="104" as="targetPoint" />
            <mxPoint x="127" y="247" as="sourcePoint" />
          </mxGeometry>
        </mxCell>
        <mxCell id="q7oeJMwzmZ5Z2_32WMV1-19" style="rounded=0;orthogonalLoop=1;jettySize=auto;html=1;exitX=1;exitY=1;exitDx=0;exitDy=0;entryX=0;entryY=0;entryDx=0;entryDy=0;" parent="q7oeJMwzmZ5Z2_32WMV1-1" source="q7oeJMwzmZ5Z2_32WMV1-3" target="q7oeJMwzmZ5Z2_32WMV1-13" edge="1">
          <mxGeometry relative="1" as="geometry">
            <mxPoint x="316" y="114" as="targetPoint" />
            <mxPoint x="137" y="257" as="sourcePoint" />
          </mxGeometry>
        </mxCell>
        <mxCell id="q7oeJMwzmZ5Z2_32WMV1-20" style="rounded=0;orthogonalLoop=1;jettySize=auto;html=1;exitX=1;exitY=0;exitDx=0;exitDy=0;entryX=-0.025;entryY=0.725;entryDx=0;entryDy=0;entryPerimeter=0;" parent="q7oeJMwzmZ5Z2_32WMV1-1" source="q7oeJMwzmZ5Z2_32WMV1-5" target="q7oeJMwzmZ5Z2_32WMV1-12" edge="1">
          <mxGeometry relative="1" as="geometry">
            <mxPoint x="326" y="124" as="targetPoint" />
            <mxPoint x="147" y="267" as="sourcePoint" />
          </mxGeometry>
        </mxCell>
        <mxCell id="abVniWN08dOeg3bSpeTy-0" style="edgeStyle=orthogonalEdgeStyle;rounded=0;orthogonalLoop=1;jettySize=auto;html=1;exitX=1;exitY=0.5;exitDx=0;exitDy=0;" edge="1" parent="q7oeJMwzmZ5Z2_32WMV1-1" target="abVniWN08dOeg3bSpeTy-4">
          <mxGeometry relative="1" as="geometry">
            <mxPoint x="320" y="70" as="sourcePoint" />
          </mxGeometry>
        </mxCell>
        <mxCell id="abVniWN08dOeg3bSpeTy-1" style="edgeStyle=orthogonalEdgeStyle;rounded=0;orthogonalLoop=1;jettySize=auto;html=1;exitX=1;exitY=0.5;exitDx=0;exitDy=0;entryX=0;entryY=0.5;entryDx=0;entryDy=0;" edge="1" parent="q7oeJMwzmZ5Z2_32WMV1-1" target="abVniWN08dOeg3bSpeTy-5">
          <mxGeometry relative="1" as="geometry">
            <mxPoint x="320" y="130" as="sourcePoint" />
          </mxGeometry>
        </mxCell>
        <mxCell id="abVniWN08dOeg3bSpeTy-2" style="edgeStyle=orthogonalEdgeStyle;rounded=0;orthogonalLoop=1;jettySize=auto;html=1;exitX=1;exitY=0.5;exitDx=0;exitDy=0;" edge="1" parent="q7oeJMwzmZ5Z2_32WMV1-1" target="abVniWN08dOeg3bSpeTy-7">
          <mxGeometry relative="1" as="geometry">
            <mxPoint x="320" y="250" as="sourcePoint" />
          </mxGeometry>
        </mxCell>
        <mxCell id="abVniWN08dOeg3bSpeTy-3" style="rounded=0;orthogonalLoop=1;jettySize=auto;html=1;exitX=1;exitY=0;exitDx=0;exitDy=0;entryX=0.15;entryY=1.025;entryDx=0;entryDy=0;entryPerimeter=0;" edge="1" parent="q7oeJMwzmZ5Z2_32WMV1-1" target="abVniWN08dOeg3bSpeTy-5">
          <mxGeometry relative="1" as="geometry">
            <mxPoint x="410" y="170" as="targetPoint" />
            <mxPoint x="314" y="236" as="sourcePoint" />
          </mxGeometry>
        </mxCell>
        <mxCell id="abVniWN08dOeg3bSpeTy-4" value="" style="ellipse;whiteSpace=wrap;html=1;aspect=fixed;" vertex="1" parent="q7oeJMwzmZ5Z2_32WMV1-1">
          <mxGeometry x="480" y="50" width="40" height="40" as="geometry" />
        </mxCell>
        <mxCell id="abVniWN08dOeg3bSpeTy-5" value="" style="ellipse;whiteSpace=wrap;html=1;aspect=fixed;" vertex="1" parent="q7oeJMwzmZ5Z2_32WMV1-1">
          <mxGeometry x="480" y="110" width="40" height="40" as="geometry" />
        </mxCell>
        <mxCell id="abVniWN08dOeg3bSpeTy-6" value="..." style="text;html=1;align=center;verticalAlign=middle;resizable=0;points=[];autosize=1;strokeColor=none;fillColor=none;" vertex="1" parent="q7oeJMwzmZ5Z2_32WMV1-1">
          <mxGeometry x="485" y="178" width="30" height="30" as="geometry" />
        </mxCell>
        <mxCell id="abVniWN08dOeg3bSpeTy-7" value="" style="ellipse;whiteSpace=wrap;html=1;aspect=fixed;" vertex="1" parent="q7oeJMwzmZ5Z2_32WMV1-1">
          <mxGeometry x="480" y="230" width="40" height="40" as="geometry" />
        </mxCell>
        <mxCell id="abVniWN08dOeg3bSpeTy-8" style="rounded=0;orthogonalLoop=1;jettySize=auto;html=1;exitX=0.675;exitY=-0.075;exitDx=0;exitDy=0;entryX=0;entryY=1;entryDx=0;entryDy=0;exitPerimeter=0;" edge="1" parent="q7oeJMwzmZ5Z2_32WMV1-1" target="abVniWN08dOeg3bSpeTy-4">
          <mxGeometry relative="1" as="geometry">
            <mxPoint x="496" y="161" as="targetPoint" />
            <mxPoint x="307" y="227" as="sourcePoint" />
          </mxGeometry>
        </mxCell>
        <mxCell id="abVniWN08dOeg3bSpeTy-9" style="rounded=0;orthogonalLoop=1;jettySize=auto;html=1;exitX=1;exitY=1;exitDx=0;exitDy=0;entryX=0;entryY=0;entryDx=0;entryDy=0;" edge="1" parent="q7oeJMwzmZ5Z2_32WMV1-1" target="abVniWN08dOeg3bSpeTy-7">
          <mxGeometry relative="1" as="geometry">
            <mxPoint x="496" y="94" as="targetPoint" />
            <mxPoint x="314" y="144" as="sourcePoint" />
          </mxGeometry>
        </mxCell>
        <mxCell id="abVniWN08dOeg3bSpeTy-10" style="rounded=0;orthogonalLoop=1;jettySize=auto;html=1;exitX=1;exitY=1;exitDx=0;exitDy=0;entryX=0.5;entryY=0;entryDx=0;entryDy=0;" edge="1" parent="q7oeJMwzmZ5Z2_32WMV1-1" target="abVniWN08dOeg3bSpeTy-7">
          <mxGeometry relative="1" as="geometry">
            <mxPoint x="506" y="104" as="targetPoint" />
            <mxPoint x="314" y="84" as="sourcePoint" />
          </mxGeometry>
        </mxCell>
        <mxCell id="abVniWN08dOeg3bSpeTy-11" style="rounded=0;orthogonalLoop=1;jettySize=auto;html=1;exitX=1;exitY=1;exitDx=0;exitDy=0;entryX=0;entryY=0;entryDx=0;entryDy=0;" edge="1" parent="q7oeJMwzmZ5Z2_32WMV1-1" target="abVniWN08dOeg3bSpeTy-5">
          <mxGeometry relative="1" as="geometry">
            <mxPoint x="516" y="114" as="targetPoint" />
            <mxPoint x="314" y="84" as="sourcePoint" />
          </mxGeometry>
        </mxCell>
        <mxCell id="abVniWN08dOeg3bSpeTy-12" style="rounded=0;orthogonalLoop=1;jettySize=auto;html=1;exitX=1;exitY=0;exitDx=0;exitDy=0;entryX=-0.025;entryY=0.725;entryDx=0;entryDy=0;entryPerimeter=0;" edge="1" parent="q7oeJMwzmZ5Z2_32WMV1-1" target="abVniWN08dOeg3bSpeTy-4">
          <mxGeometry relative="1" as="geometry">
            <mxPoint x="526" y="124" as="targetPoint" />
            <mxPoint x="314" y="116" as="sourcePoint" />
          </mxGeometry>
        </mxCell>
        <mxCell id="abVniWN08dOeg3bSpeTy-13" value="" style="shape=curlyBracket;whiteSpace=wrap;html=1;rounded=1;flipH=1;labelPosition=right;verticalLabelPosition=middle;align=left;verticalAlign=middle;size=0.5;direction=north;" vertex="1" parent="q7oeJMwzmZ5Z2_32WMV1-1">
          <mxGeometry x="270" y="280" width="60" height="20" as="geometry" />
        </mxCell>
        <mxCell id="abVniWN08dOeg3bSpeTy-14" value="&lt;font style=&quot;font-size: 16px;&quot;&gt;256&lt;/font&gt;" style="text;html=1;align=center;verticalAlign=middle;resizable=0;points=[];autosize=1;strokeColor=none;fillColor=none;" vertex="1" parent="q7oeJMwzmZ5Z2_32WMV1-1">
          <mxGeometry x="275" y="315" width="50" height="30" as="geometry" />
        </mxCell>
        <mxCell id="abVniWN08dOeg3bSpeTy-15" value="" style="shape=curlyBracket;whiteSpace=wrap;html=1;rounded=1;flipH=1;labelPosition=right;verticalLabelPosition=middle;align=left;verticalAlign=middle;size=0.5;direction=north;" vertex="1" parent="q7oeJMwzmZ5Z2_32WMV1-1">
          <mxGeometry x="470" y="280" width="60" height="20" as="geometry" />
        </mxCell>
        <mxCell id="abVniWN08dOeg3bSpeTy-16" value="&lt;font style=&quot;font-size: 16px;&quot;&gt;10&lt;/font&gt;" style="text;html=1;align=center;verticalAlign=middle;resizable=0;points=[];autosize=1;strokeColor=none;fillColor=none;" vertex="1" parent="q7oeJMwzmZ5Z2_32WMV1-1">
          <mxGeometry x="480" y="315" width="40" height="30" as="geometry" />
        </mxCell>
      </root>
    </mxGraphModel>
  </diagram>
  <diagram name="layer_5" id="aAHkH775lzT8CA6jrg6L">
    <mxGraphModel grid="1" page="1" gridSize="10" guides="1" tooltips="1" connect="1" arrows="1" fold="1" pageScale="1" pageWidth="827" pageHeight="1169" math="0" shadow="0">
      <root>
        <mxCell id="5zqTVPVsU2g5JCUqdkIN-0" />
        <mxCell id="5zqTVPVsU2g5JCUqdkIN-1" parent="5zqTVPVsU2g5JCUqdkIN-0" />
        <mxCell id="5zqTVPVsU2g5JCUqdkIN-2" style="edgeStyle=orthogonalEdgeStyle;rounded=0;orthogonalLoop=1;jettySize=auto;html=1;exitX=1;exitY=0.5;exitDx=0;exitDy=0;" parent="5zqTVPVsU2g5JCUqdkIN-1" source="5zqTVPVsU2g5JCUqdkIN-3" target="5zqTVPVsU2g5JCUqdkIN-12" edge="1">
          <mxGeometry relative="1" as="geometry" />
        </mxCell>
        <mxCell id="5zqTVPVsU2g5JCUqdkIN-3" value="" style="ellipse;whiteSpace=wrap;html=1;aspect=fixed;" parent="5zqTVPVsU2g5JCUqdkIN-1" vertex="1">
          <mxGeometry x="80" y="50" width="40" height="40" as="geometry" />
        </mxCell>
        <mxCell id="5zqTVPVsU2g5JCUqdkIN-4" style="edgeStyle=orthogonalEdgeStyle;rounded=0;orthogonalLoop=1;jettySize=auto;html=1;exitX=1;exitY=0.5;exitDx=0;exitDy=0;entryX=0;entryY=0.5;entryDx=0;entryDy=0;" parent="5zqTVPVsU2g5JCUqdkIN-1" source="5zqTVPVsU2g5JCUqdkIN-5" target="5zqTVPVsU2g5JCUqdkIN-13" edge="1">
          <mxGeometry relative="1" as="geometry" />
        </mxCell>
        <mxCell id="5zqTVPVsU2g5JCUqdkIN-5" value="" style="ellipse;whiteSpace=wrap;html=1;aspect=fixed;" parent="5zqTVPVsU2g5JCUqdkIN-1" vertex="1">
          <mxGeometry x="80" y="110" width="40" height="40" as="geometry" />
        </mxCell>
        <mxCell id="5zqTVPVsU2g5JCUqdkIN-6" value="..." style="text;html=1;align=center;verticalAlign=middle;resizable=0;points=[];autosize=1;strokeColor=none;fillColor=none;" parent="5zqTVPVsU2g5JCUqdkIN-1" vertex="1">
          <mxGeometry x="85" y="178" width="30" height="30" as="geometry" />
        </mxCell>
        <mxCell id="5zqTVPVsU2g5JCUqdkIN-7" style="edgeStyle=orthogonalEdgeStyle;rounded=0;orthogonalLoop=1;jettySize=auto;html=1;exitX=1;exitY=0.5;exitDx=0;exitDy=0;" parent="5zqTVPVsU2g5JCUqdkIN-1" source="5zqTVPVsU2g5JCUqdkIN-9" target="5zqTVPVsU2g5JCUqdkIN-15" edge="1">
          <mxGeometry relative="1" as="geometry" />
        </mxCell>
        <mxCell id="5zqTVPVsU2g5JCUqdkIN-8" style="rounded=0;orthogonalLoop=1;jettySize=auto;html=1;exitX=1;exitY=0;exitDx=0;exitDy=0;entryX=0.15;entryY=1.025;entryDx=0;entryDy=0;entryPerimeter=0;" parent="5zqTVPVsU2g5JCUqdkIN-1" source="5zqTVPVsU2g5JCUqdkIN-9" target="5zqTVPVsU2g5JCUqdkIN-13" edge="1">
          <mxGeometry relative="1" as="geometry">
            <mxPoint x="210" y="170" as="targetPoint" />
          </mxGeometry>
        </mxCell>
        <mxCell id="5zqTVPVsU2g5JCUqdkIN-9" value="" style="ellipse;whiteSpace=wrap;html=1;aspect=fixed;" parent="5zqTVPVsU2g5JCUqdkIN-1" vertex="1">
          <mxGeometry x="80" y="230" width="40" height="40" as="geometry" />
        </mxCell>
        <mxCell id="5zqTVPVsU2g5JCUqdkIN-10" value="" style="shape=curlyBracket;whiteSpace=wrap;html=1;rounded=1;flipH=1;labelPosition=right;verticalLabelPosition=middle;align=left;verticalAlign=middle;size=0.5;direction=north;" parent="5zqTVPVsU2g5JCUqdkIN-1" vertex="1">
          <mxGeometry x="70" y="290" width="60" height="20" as="geometry" />
        </mxCell>
        <mxCell id="5zqTVPVsU2g5JCUqdkIN-11" value="&lt;font style=&quot;font-size: 16px;&quot;&gt;28&lt;sup&gt;2&lt;/sup&gt;&lt;/font&gt;" style="text;html=1;align=center;verticalAlign=middle;resizable=0;points=[];autosize=1;strokeColor=none;fillColor=none;" parent="5zqTVPVsU2g5JCUqdkIN-1" vertex="1">
          <mxGeometry x="75" y="320" width="50" height="40" as="geometry" />
        </mxCell>
        <mxCell id="5zqTVPVsU2g5JCUqdkIN-12" value="" style="ellipse;whiteSpace=wrap;html=1;aspect=fixed;" parent="5zqTVPVsU2g5JCUqdkIN-1" vertex="1">
          <mxGeometry x="280" y="50" width="40" height="40" as="geometry" />
        </mxCell>
        <mxCell id="5zqTVPVsU2g5JCUqdkIN-13" value="" style="ellipse;whiteSpace=wrap;html=1;aspect=fixed;" parent="5zqTVPVsU2g5JCUqdkIN-1" vertex="1">
          <mxGeometry x="280" y="110" width="40" height="40" as="geometry" />
        </mxCell>
        <mxCell id="5zqTVPVsU2g5JCUqdkIN-14" value="..." style="text;html=1;align=center;verticalAlign=middle;resizable=0;points=[];autosize=1;strokeColor=none;fillColor=none;" parent="5zqTVPVsU2g5JCUqdkIN-1" vertex="1">
          <mxGeometry x="285" y="178" width="30" height="30" as="geometry" />
        </mxCell>
        <mxCell id="5zqTVPVsU2g5JCUqdkIN-15" value="" style="ellipse;whiteSpace=wrap;html=1;aspect=fixed;" parent="5zqTVPVsU2g5JCUqdkIN-1" vertex="1">
          <mxGeometry x="280" y="230" width="40" height="40" as="geometry" />
        </mxCell>
        <mxCell id="5zqTVPVsU2g5JCUqdkIN-16" style="rounded=0;orthogonalLoop=1;jettySize=auto;html=1;exitX=0.675;exitY=-0.075;exitDx=0;exitDy=0;entryX=0;entryY=1;entryDx=0;entryDy=0;exitPerimeter=0;" parent="5zqTVPVsU2g5JCUqdkIN-1" source="5zqTVPVsU2g5JCUqdkIN-9" target="5zqTVPVsU2g5JCUqdkIN-12" edge="1">
          <mxGeometry relative="1" as="geometry">
            <mxPoint x="296" y="161" as="targetPoint" />
            <mxPoint x="124" y="246" as="sourcePoint" />
          </mxGeometry>
        </mxCell>
        <mxCell id="5zqTVPVsU2g5JCUqdkIN-17" style="rounded=0;orthogonalLoop=1;jettySize=auto;html=1;exitX=1;exitY=1;exitDx=0;exitDy=0;entryX=0;entryY=0;entryDx=0;entryDy=0;" parent="5zqTVPVsU2g5JCUqdkIN-1" source="5zqTVPVsU2g5JCUqdkIN-5" target="5zqTVPVsU2g5JCUqdkIN-15" edge="1">
          <mxGeometry relative="1" as="geometry">
            <mxPoint x="296" y="94" as="targetPoint" />
            <mxPoint x="117" y="237" as="sourcePoint" />
          </mxGeometry>
        </mxCell>
        <mxCell id="5zqTVPVsU2g5JCUqdkIN-18" style="rounded=0;orthogonalLoop=1;jettySize=auto;html=1;exitX=1;exitY=1;exitDx=0;exitDy=0;entryX=0.5;entryY=0;entryDx=0;entryDy=0;" parent="5zqTVPVsU2g5JCUqdkIN-1" source="5zqTVPVsU2g5JCUqdkIN-3" target="5zqTVPVsU2g5JCUqdkIN-15" edge="1">
          <mxGeometry relative="1" as="geometry">
            <mxPoint x="306" y="104" as="targetPoint" />
            <mxPoint x="127" y="247" as="sourcePoint" />
          </mxGeometry>
        </mxCell>
        <mxCell id="5zqTVPVsU2g5JCUqdkIN-19" style="rounded=0;orthogonalLoop=1;jettySize=auto;html=1;exitX=1;exitY=1;exitDx=0;exitDy=0;entryX=0;entryY=0;entryDx=0;entryDy=0;" parent="5zqTVPVsU2g5JCUqdkIN-1" source="5zqTVPVsU2g5JCUqdkIN-3" target="5zqTVPVsU2g5JCUqdkIN-13" edge="1">
          <mxGeometry relative="1" as="geometry">
            <mxPoint x="316" y="114" as="targetPoint" />
            <mxPoint x="137" y="257" as="sourcePoint" />
          </mxGeometry>
        </mxCell>
        <mxCell id="5zqTVPVsU2g5JCUqdkIN-20" style="rounded=0;orthogonalLoop=1;jettySize=auto;html=1;exitX=1;exitY=0;exitDx=0;exitDy=0;entryX=-0.025;entryY=0.725;entryDx=0;entryDy=0;entryPerimeter=0;" parent="5zqTVPVsU2g5JCUqdkIN-1" source="5zqTVPVsU2g5JCUqdkIN-5" target="5zqTVPVsU2g5JCUqdkIN-12" edge="1">
          <mxGeometry relative="1" as="geometry">
            <mxPoint x="326" y="124" as="targetPoint" />
            <mxPoint x="147" y="267" as="sourcePoint" />
          </mxGeometry>
        </mxCell>
        <mxCell id="5zqTVPVsU2g5JCUqdkIN-21" style="edgeStyle=orthogonalEdgeStyle;rounded=0;orthogonalLoop=1;jettySize=auto;html=1;exitX=1;exitY=0.5;exitDx=0;exitDy=0;" parent="5zqTVPVsU2g5JCUqdkIN-1" target="5zqTVPVsU2g5JCUqdkIN-25" edge="1">
          <mxGeometry relative="1" as="geometry">
            <mxPoint x="320" y="70" as="sourcePoint" />
          </mxGeometry>
        </mxCell>
        <mxCell id="5zqTVPVsU2g5JCUqdkIN-22" style="edgeStyle=orthogonalEdgeStyle;rounded=0;orthogonalLoop=1;jettySize=auto;html=1;exitX=1;exitY=0.5;exitDx=0;exitDy=0;entryX=0;entryY=0.5;entryDx=0;entryDy=0;" parent="5zqTVPVsU2g5JCUqdkIN-1" target="5zqTVPVsU2g5JCUqdkIN-26" edge="1">
          <mxGeometry relative="1" as="geometry">
            <mxPoint x="320" y="130" as="sourcePoint" />
          </mxGeometry>
        </mxCell>
        <mxCell id="5zqTVPVsU2g5JCUqdkIN-23" style="edgeStyle=orthogonalEdgeStyle;rounded=0;orthogonalLoop=1;jettySize=auto;html=1;exitX=1;exitY=0.5;exitDx=0;exitDy=0;" parent="5zqTVPVsU2g5JCUqdkIN-1" target="5zqTVPVsU2g5JCUqdkIN-28" edge="1">
          <mxGeometry relative="1" as="geometry">
            <mxPoint x="320" y="250" as="sourcePoint" />
          </mxGeometry>
        </mxCell>
        <mxCell id="5zqTVPVsU2g5JCUqdkIN-24" style="rounded=0;orthogonalLoop=1;jettySize=auto;html=1;exitX=1;exitY=0;exitDx=0;exitDy=0;entryX=0.15;entryY=1.025;entryDx=0;entryDy=0;entryPerimeter=0;" parent="5zqTVPVsU2g5JCUqdkIN-1" target="5zqTVPVsU2g5JCUqdkIN-26" edge="1">
          <mxGeometry relative="1" as="geometry">
            <mxPoint x="410" y="170" as="targetPoint" />
            <mxPoint x="314" y="236" as="sourcePoint" />
          </mxGeometry>
        </mxCell>
        <mxCell id="5zqTVPVsU2g5JCUqdkIN-25" value="" style="ellipse;whiteSpace=wrap;html=1;aspect=fixed;" parent="5zqTVPVsU2g5JCUqdkIN-1" vertex="1">
          <mxGeometry x="480" y="50" width="40" height="40" as="geometry" />
        </mxCell>
        <mxCell id="5zqTVPVsU2g5JCUqdkIN-26" value="" style="ellipse;whiteSpace=wrap;html=1;aspect=fixed;" parent="5zqTVPVsU2g5JCUqdkIN-1" vertex="1">
          <mxGeometry x="480" y="110" width="40" height="40" as="geometry" />
        </mxCell>
        <mxCell id="5zqTVPVsU2g5JCUqdkIN-27" value="..." style="text;html=1;align=center;verticalAlign=middle;resizable=0;points=[];autosize=1;strokeColor=none;fillColor=none;" parent="5zqTVPVsU2g5JCUqdkIN-1" vertex="1">
          <mxGeometry x="485" y="178" width="30" height="30" as="geometry" />
        </mxCell>
        <mxCell id="5zqTVPVsU2g5JCUqdkIN-28" value="" style="ellipse;whiteSpace=wrap;html=1;aspect=fixed;" parent="5zqTVPVsU2g5JCUqdkIN-1" vertex="1">
          <mxGeometry x="480" y="230" width="40" height="40" as="geometry" />
        </mxCell>
        <mxCell id="5zqTVPVsU2g5JCUqdkIN-29" style="rounded=0;orthogonalLoop=1;jettySize=auto;html=1;exitX=0.675;exitY=-0.075;exitDx=0;exitDy=0;entryX=0;entryY=1;entryDx=0;entryDy=0;exitPerimeter=0;" parent="5zqTVPVsU2g5JCUqdkIN-1" target="5zqTVPVsU2g5JCUqdkIN-25" edge="1">
          <mxGeometry relative="1" as="geometry">
            <mxPoint x="496" y="161" as="targetPoint" />
            <mxPoint x="307" y="227" as="sourcePoint" />
          </mxGeometry>
        </mxCell>
        <mxCell id="5zqTVPVsU2g5JCUqdkIN-30" style="rounded=0;orthogonalLoop=1;jettySize=auto;html=1;exitX=1;exitY=1;exitDx=0;exitDy=0;entryX=0;entryY=0;entryDx=0;entryDy=0;" parent="5zqTVPVsU2g5JCUqdkIN-1" target="5zqTVPVsU2g5JCUqdkIN-28" edge="1">
          <mxGeometry relative="1" as="geometry">
            <mxPoint x="496" y="94" as="targetPoint" />
            <mxPoint x="314" y="144" as="sourcePoint" />
          </mxGeometry>
        </mxCell>
        <mxCell id="5zqTVPVsU2g5JCUqdkIN-31" style="rounded=0;orthogonalLoop=1;jettySize=auto;html=1;exitX=1;exitY=1;exitDx=0;exitDy=0;entryX=0.5;entryY=0;entryDx=0;entryDy=0;" parent="5zqTVPVsU2g5JCUqdkIN-1" target="5zqTVPVsU2g5JCUqdkIN-28" edge="1">
          <mxGeometry relative="1" as="geometry">
            <mxPoint x="506" y="104" as="targetPoint" />
            <mxPoint x="314" y="84" as="sourcePoint" />
          </mxGeometry>
        </mxCell>
        <mxCell id="5zqTVPVsU2g5JCUqdkIN-32" style="rounded=0;orthogonalLoop=1;jettySize=auto;html=1;exitX=1;exitY=1;exitDx=0;exitDy=0;entryX=0;entryY=0;entryDx=0;entryDy=0;" parent="5zqTVPVsU2g5JCUqdkIN-1" target="5zqTVPVsU2g5JCUqdkIN-26" edge="1">
          <mxGeometry relative="1" as="geometry">
            <mxPoint x="516" y="114" as="targetPoint" />
            <mxPoint x="314" y="84" as="sourcePoint" />
          </mxGeometry>
        </mxCell>
        <mxCell id="5zqTVPVsU2g5JCUqdkIN-33" style="rounded=0;orthogonalLoop=1;jettySize=auto;html=1;exitX=1;exitY=0;exitDx=0;exitDy=0;entryX=-0.025;entryY=0.725;entryDx=0;entryDy=0;entryPerimeter=0;" parent="5zqTVPVsU2g5JCUqdkIN-1" target="5zqTVPVsU2g5JCUqdkIN-25" edge="1">
          <mxGeometry relative="1" as="geometry">
            <mxPoint x="526" y="124" as="targetPoint" />
            <mxPoint x="314" y="116" as="sourcePoint" />
          </mxGeometry>
        </mxCell>
        <mxCell id="5zqTVPVsU2g5JCUqdkIN-34" value="" style="shape=curlyBracket;whiteSpace=wrap;html=1;rounded=1;flipH=1;labelPosition=right;verticalLabelPosition=middle;align=left;verticalAlign=middle;size=0.5;direction=north;" parent="5zqTVPVsU2g5JCUqdkIN-1" vertex="1">
          <mxGeometry x="270" y="280" width="60" height="20" as="geometry" />
        </mxCell>
        <mxCell id="5zqTVPVsU2g5JCUqdkIN-35" value="&lt;font style=&quot;font-size: 16px;&quot;&gt;512&lt;/font&gt;" style="text;html=1;align=center;verticalAlign=middle;resizable=0;points=[];autosize=1;strokeColor=none;fillColor=none;" parent="5zqTVPVsU2g5JCUqdkIN-1" vertex="1">
          <mxGeometry x="275" y="315" width="50" height="30" as="geometry" />
        </mxCell>
        <mxCell id="5zqTVPVsU2g5JCUqdkIN-36" value="" style="shape=curlyBracket;whiteSpace=wrap;html=1;rounded=1;flipH=1;labelPosition=right;verticalLabelPosition=middle;align=left;verticalAlign=middle;size=0.5;direction=north;" parent="5zqTVPVsU2g5JCUqdkIN-1" vertex="1">
          <mxGeometry x="470" y="280" width="60" height="20" as="geometry" />
        </mxCell>
        <mxCell id="scc9m3_LBOG0Tqsf6WNj-0" value="&lt;font style=&quot;font-size: 16px;&quot;&gt;256&lt;/font&gt;" style="text;html=1;align=center;verticalAlign=middle;resizable=0;points=[];autosize=1;strokeColor=none;fillColor=none;" vertex="1" parent="5zqTVPVsU2g5JCUqdkIN-1">
          <mxGeometry x="475" y="310" width="50" height="30" as="geometry" />
        </mxCell>
        <mxCell id="scc9m3_LBOG0Tqsf6WNj-1" style="edgeStyle=orthogonalEdgeStyle;rounded=0;orthogonalLoop=1;jettySize=auto;html=1;exitX=1;exitY=0.5;exitDx=0;exitDy=0;" edge="1" parent="5zqTVPVsU2g5JCUqdkIN-1" target="scc9m3_LBOG0Tqsf6WNj-5">
          <mxGeometry relative="1" as="geometry">
            <mxPoint x="526" y="65" as="sourcePoint" />
          </mxGeometry>
        </mxCell>
        <mxCell id="scc9m3_LBOG0Tqsf6WNj-2" style="edgeStyle=orthogonalEdgeStyle;rounded=0;orthogonalLoop=1;jettySize=auto;html=1;exitX=1;exitY=0.5;exitDx=0;exitDy=0;entryX=0;entryY=0.5;entryDx=0;entryDy=0;" edge="1" parent="5zqTVPVsU2g5JCUqdkIN-1" target="scc9m3_LBOG0Tqsf6WNj-6">
          <mxGeometry relative="1" as="geometry">
            <mxPoint x="526" y="125" as="sourcePoint" />
          </mxGeometry>
        </mxCell>
        <mxCell id="scc9m3_LBOG0Tqsf6WNj-3" style="edgeStyle=orthogonalEdgeStyle;rounded=0;orthogonalLoop=1;jettySize=auto;html=1;exitX=1;exitY=0.5;exitDx=0;exitDy=0;" edge="1" parent="5zqTVPVsU2g5JCUqdkIN-1" target="scc9m3_LBOG0Tqsf6WNj-8">
          <mxGeometry relative="1" as="geometry">
            <mxPoint x="526" y="245" as="sourcePoint" />
          </mxGeometry>
        </mxCell>
        <mxCell id="scc9m3_LBOG0Tqsf6WNj-4" style="rounded=0;orthogonalLoop=1;jettySize=auto;html=1;exitX=1;exitY=0;exitDx=0;exitDy=0;entryX=0.15;entryY=1.025;entryDx=0;entryDy=0;entryPerimeter=0;" edge="1" parent="5zqTVPVsU2g5JCUqdkIN-1" target="scc9m3_LBOG0Tqsf6WNj-6">
          <mxGeometry relative="1" as="geometry">
            <mxPoint x="616" y="165" as="targetPoint" />
            <mxPoint x="520" y="231" as="sourcePoint" />
          </mxGeometry>
        </mxCell>
        <mxCell id="scc9m3_LBOG0Tqsf6WNj-5" value="" style="ellipse;whiteSpace=wrap;html=1;aspect=fixed;" vertex="1" parent="5zqTVPVsU2g5JCUqdkIN-1">
          <mxGeometry x="686" y="45" width="40" height="40" as="geometry" />
        </mxCell>
        <mxCell id="scc9m3_LBOG0Tqsf6WNj-6" value="" style="ellipse;whiteSpace=wrap;html=1;aspect=fixed;" vertex="1" parent="5zqTVPVsU2g5JCUqdkIN-1">
          <mxGeometry x="686" y="105" width="40" height="40" as="geometry" />
        </mxCell>
        <mxCell id="scc9m3_LBOG0Tqsf6WNj-7" value="..." style="text;html=1;align=center;verticalAlign=middle;resizable=0;points=[];autosize=1;strokeColor=none;fillColor=none;" vertex="1" parent="5zqTVPVsU2g5JCUqdkIN-1">
          <mxGeometry x="691" y="173" width="30" height="30" as="geometry" />
        </mxCell>
        <mxCell id="scc9m3_LBOG0Tqsf6WNj-8" value="" style="ellipse;whiteSpace=wrap;html=1;aspect=fixed;" vertex="1" parent="5zqTVPVsU2g5JCUqdkIN-1">
          <mxGeometry x="686" y="225" width="40" height="40" as="geometry" />
        </mxCell>
        <mxCell id="scc9m3_LBOG0Tqsf6WNj-9" style="rounded=0;orthogonalLoop=1;jettySize=auto;html=1;exitX=1;exitY=1;exitDx=0;exitDy=0;entryX=0;entryY=0;entryDx=0;entryDy=0;" edge="1" parent="5zqTVPVsU2g5JCUqdkIN-1" target="scc9m3_LBOG0Tqsf6WNj-8">
          <mxGeometry relative="1" as="geometry">
            <mxPoint x="702" y="89" as="targetPoint" />
            <mxPoint x="520" y="139" as="sourcePoint" />
          </mxGeometry>
        </mxCell>
        <mxCell id="scc9m3_LBOG0Tqsf6WNj-10" style="rounded=0;orthogonalLoop=1;jettySize=auto;html=1;exitX=1;exitY=1;exitDx=0;exitDy=0;entryX=0.5;entryY=0;entryDx=0;entryDy=0;" edge="1" parent="5zqTVPVsU2g5JCUqdkIN-1" target="scc9m3_LBOG0Tqsf6WNj-8">
          <mxGeometry relative="1" as="geometry">
            <mxPoint x="712" y="99" as="targetPoint" />
            <mxPoint x="520" y="79" as="sourcePoint" />
          </mxGeometry>
        </mxCell>
        <mxCell id="scc9m3_LBOG0Tqsf6WNj-11" style="rounded=0;orthogonalLoop=1;jettySize=auto;html=1;exitX=1;exitY=1;exitDx=0;exitDy=0;entryX=0;entryY=0;entryDx=0;entryDy=0;" edge="1" parent="5zqTVPVsU2g5JCUqdkIN-1" target="scc9m3_LBOG0Tqsf6WNj-6">
          <mxGeometry relative="1" as="geometry">
            <mxPoint x="722" y="109" as="targetPoint" />
            <mxPoint x="520" y="79" as="sourcePoint" />
          </mxGeometry>
        </mxCell>
        <mxCell id="scc9m3_LBOG0Tqsf6WNj-12" style="rounded=0;orthogonalLoop=1;jettySize=auto;html=1;exitX=1;exitY=0;exitDx=0;exitDy=0;entryX=-0.025;entryY=0.725;entryDx=0;entryDy=0;entryPerimeter=0;" edge="1" parent="5zqTVPVsU2g5JCUqdkIN-1" target="scc9m3_LBOG0Tqsf6WNj-5">
          <mxGeometry relative="1" as="geometry">
            <mxPoint x="732" y="119" as="targetPoint" />
            <mxPoint x="520" y="111" as="sourcePoint" />
          </mxGeometry>
        </mxCell>
        <mxCell id="scc9m3_LBOG0Tqsf6WNj-13" style="edgeStyle=orthogonalEdgeStyle;rounded=0;orthogonalLoop=1;jettySize=auto;html=1;exitX=1;exitY=0.5;exitDx=0;exitDy=0;" edge="1" parent="5zqTVPVsU2g5JCUqdkIN-1" target="scc9m3_LBOG0Tqsf6WNj-17">
          <mxGeometry relative="1" as="geometry">
            <mxPoint x="726" y="65" as="sourcePoint" />
          </mxGeometry>
        </mxCell>
        <mxCell id="scc9m3_LBOG0Tqsf6WNj-14" style="edgeStyle=orthogonalEdgeStyle;rounded=0;orthogonalLoop=1;jettySize=auto;html=1;exitX=1;exitY=0.5;exitDx=0;exitDy=0;entryX=0;entryY=0.5;entryDx=0;entryDy=0;" edge="1" parent="5zqTVPVsU2g5JCUqdkIN-1" target="scc9m3_LBOG0Tqsf6WNj-18">
          <mxGeometry relative="1" as="geometry">
            <mxPoint x="726" y="125" as="sourcePoint" />
          </mxGeometry>
        </mxCell>
        <mxCell id="scc9m3_LBOG0Tqsf6WNj-15" style="edgeStyle=orthogonalEdgeStyle;rounded=0;orthogonalLoop=1;jettySize=auto;html=1;exitX=1;exitY=0.5;exitDx=0;exitDy=0;" edge="1" parent="5zqTVPVsU2g5JCUqdkIN-1" target="scc9m3_LBOG0Tqsf6WNj-20">
          <mxGeometry relative="1" as="geometry">
            <mxPoint x="726" y="245" as="sourcePoint" />
          </mxGeometry>
        </mxCell>
        <mxCell id="scc9m3_LBOG0Tqsf6WNj-16" style="rounded=0;orthogonalLoop=1;jettySize=auto;html=1;exitX=1;exitY=0;exitDx=0;exitDy=0;entryX=0.15;entryY=1.025;entryDx=0;entryDy=0;entryPerimeter=0;" edge="1" parent="5zqTVPVsU2g5JCUqdkIN-1" target="scc9m3_LBOG0Tqsf6WNj-18">
          <mxGeometry relative="1" as="geometry">
            <mxPoint x="816" y="165" as="targetPoint" />
            <mxPoint x="720" y="231" as="sourcePoint" />
          </mxGeometry>
        </mxCell>
        <mxCell id="scc9m3_LBOG0Tqsf6WNj-17" value="" style="ellipse;whiteSpace=wrap;html=1;aspect=fixed;" vertex="1" parent="5zqTVPVsU2g5JCUqdkIN-1">
          <mxGeometry x="886" y="45" width="40" height="40" as="geometry" />
        </mxCell>
        <mxCell id="scc9m3_LBOG0Tqsf6WNj-18" value="" style="ellipse;whiteSpace=wrap;html=1;aspect=fixed;" vertex="1" parent="5zqTVPVsU2g5JCUqdkIN-1">
          <mxGeometry x="886" y="105" width="40" height="40" as="geometry" />
        </mxCell>
        <mxCell id="scc9m3_LBOG0Tqsf6WNj-19" value="..." style="text;html=1;align=center;verticalAlign=middle;resizable=0;points=[];autosize=1;strokeColor=none;fillColor=none;" vertex="1" parent="5zqTVPVsU2g5JCUqdkIN-1">
          <mxGeometry x="891" y="173" width="30" height="30" as="geometry" />
        </mxCell>
        <mxCell id="scc9m3_LBOG0Tqsf6WNj-20" value="" style="ellipse;whiteSpace=wrap;html=1;aspect=fixed;" vertex="1" parent="5zqTVPVsU2g5JCUqdkIN-1">
          <mxGeometry x="886" y="225" width="40" height="40" as="geometry" />
        </mxCell>
        <mxCell id="scc9m3_LBOG0Tqsf6WNj-21" style="rounded=0;orthogonalLoop=1;jettySize=auto;html=1;exitX=0.675;exitY=-0.075;exitDx=0;exitDy=0;entryX=0;entryY=1;entryDx=0;entryDy=0;exitPerimeter=0;" edge="1" parent="5zqTVPVsU2g5JCUqdkIN-1" target="scc9m3_LBOG0Tqsf6WNj-17">
          <mxGeometry relative="1" as="geometry">
            <mxPoint x="902" y="156" as="targetPoint" />
            <mxPoint x="713" y="222" as="sourcePoint" />
          </mxGeometry>
        </mxCell>
        <mxCell id="scc9m3_LBOG0Tqsf6WNj-22" style="rounded=0;orthogonalLoop=1;jettySize=auto;html=1;exitX=1;exitY=1;exitDx=0;exitDy=0;entryX=0;entryY=0;entryDx=0;entryDy=0;" edge="1" parent="5zqTVPVsU2g5JCUqdkIN-1" target="scc9m3_LBOG0Tqsf6WNj-20">
          <mxGeometry relative="1" as="geometry">
            <mxPoint x="902" y="89" as="targetPoint" />
            <mxPoint x="720" y="139" as="sourcePoint" />
          </mxGeometry>
        </mxCell>
        <mxCell id="scc9m3_LBOG0Tqsf6WNj-23" style="rounded=0;orthogonalLoop=1;jettySize=auto;html=1;exitX=1;exitY=1;exitDx=0;exitDy=0;entryX=0.5;entryY=0;entryDx=0;entryDy=0;" edge="1" parent="5zqTVPVsU2g5JCUqdkIN-1" target="scc9m3_LBOG0Tqsf6WNj-20">
          <mxGeometry relative="1" as="geometry">
            <mxPoint x="912" y="99" as="targetPoint" />
            <mxPoint x="720" y="79" as="sourcePoint" />
          </mxGeometry>
        </mxCell>
        <mxCell id="scc9m3_LBOG0Tqsf6WNj-24" style="rounded=0;orthogonalLoop=1;jettySize=auto;html=1;exitX=1;exitY=1;exitDx=0;exitDy=0;entryX=0;entryY=0;entryDx=0;entryDy=0;" edge="1" parent="5zqTVPVsU2g5JCUqdkIN-1" target="scc9m3_LBOG0Tqsf6WNj-18">
          <mxGeometry relative="1" as="geometry">
            <mxPoint x="922" y="109" as="targetPoint" />
            <mxPoint x="720" y="79" as="sourcePoint" />
          </mxGeometry>
        </mxCell>
        <mxCell id="scc9m3_LBOG0Tqsf6WNj-25" style="rounded=0;orthogonalLoop=1;jettySize=auto;html=1;exitX=1;exitY=0;exitDx=0;exitDy=0;entryX=-0.025;entryY=0.725;entryDx=0;entryDy=0;entryPerimeter=0;" edge="1" parent="5zqTVPVsU2g5JCUqdkIN-1" target="scc9m3_LBOG0Tqsf6WNj-17">
          <mxGeometry relative="1" as="geometry">
            <mxPoint x="932" y="119" as="targetPoint" />
            <mxPoint x="720" y="111" as="sourcePoint" />
          </mxGeometry>
        </mxCell>
        <mxCell id="scc9m3_LBOG0Tqsf6WNj-26" value="" style="shape=curlyBracket;whiteSpace=wrap;html=1;rounded=1;flipH=1;labelPosition=right;verticalLabelPosition=middle;align=left;verticalAlign=middle;size=0.5;direction=north;" vertex="1" parent="5zqTVPVsU2g5JCUqdkIN-1">
          <mxGeometry x="676" y="275" width="60" height="20" as="geometry" />
        </mxCell>
        <mxCell id="scc9m3_LBOG0Tqsf6WNj-27" value="&lt;font style=&quot;font-size: 16px;&quot;&gt;128&lt;/font&gt;" style="text;html=1;align=center;verticalAlign=middle;resizable=0;points=[];autosize=1;strokeColor=none;fillColor=none;" vertex="1" parent="5zqTVPVsU2g5JCUqdkIN-1">
          <mxGeometry x="681" y="310" width="50" height="30" as="geometry" />
        </mxCell>
        <mxCell id="scc9m3_LBOG0Tqsf6WNj-28" value="" style="shape=curlyBracket;whiteSpace=wrap;html=1;rounded=1;flipH=1;labelPosition=right;verticalLabelPosition=middle;align=left;verticalAlign=middle;size=0.5;direction=north;" vertex="1" parent="5zqTVPVsU2g5JCUqdkIN-1">
          <mxGeometry x="876" y="275" width="60" height="20" as="geometry" />
        </mxCell>
        <mxCell id="scc9m3_LBOG0Tqsf6WNj-29" value="&lt;font style=&quot;font-size: 16px;&quot;&gt;64&lt;/font&gt;" style="text;html=1;align=center;verticalAlign=middle;resizable=0;points=[];autosize=1;strokeColor=none;fillColor=none;" vertex="1" parent="5zqTVPVsU2g5JCUqdkIN-1">
          <mxGeometry x="886" y="305" width="40" height="30" as="geometry" />
        </mxCell>
        <mxCell id="Ar_MdsimDqRM08C0ZZ3F-0" style="edgeStyle=orthogonalEdgeStyle;rounded=0;orthogonalLoop=1;jettySize=auto;html=1;exitX=1;exitY=0.5;exitDx=0;exitDy=0;" edge="1" parent="5zqTVPVsU2g5JCUqdkIN-1" target="Ar_MdsimDqRM08C0ZZ3F-4">
          <mxGeometry relative="1" as="geometry">
            <mxPoint x="1125" y="66.5" as="sourcePoint" />
          </mxGeometry>
        </mxCell>
        <mxCell id="Ar_MdsimDqRM08C0ZZ3F-1" style="edgeStyle=orthogonalEdgeStyle;rounded=0;orthogonalLoop=1;jettySize=auto;html=1;exitX=1;exitY=0.5;exitDx=0;exitDy=0;entryX=0;entryY=0.5;entryDx=0;entryDy=0;" edge="1" parent="5zqTVPVsU2g5JCUqdkIN-1" target="Ar_MdsimDqRM08C0ZZ3F-5">
          <mxGeometry relative="1" as="geometry">
            <mxPoint x="1125" y="126.5" as="sourcePoint" />
          </mxGeometry>
        </mxCell>
        <mxCell id="Ar_MdsimDqRM08C0ZZ3F-2" style="edgeStyle=orthogonalEdgeStyle;rounded=0;orthogonalLoop=1;jettySize=auto;html=1;exitX=1;exitY=0.5;exitDx=0;exitDy=0;" edge="1" parent="5zqTVPVsU2g5JCUqdkIN-1" target="Ar_MdsimDqRM08C0ZZ3F-7">
          <mxGeometry relative="1" as="geometry">
            <mxPoint x="1125" y="246.5" as="sourcePoint" />
          </mxGeometry>
        </mxCell>
        <mxCell id="Ar_MdsimDqRM08C0ZZ3F-3" style="rounded=0;orthogonalLoop=1;jettySize=auto;html=1;exitX=1;exitY=0;exitDx=0;exitDy=0;entryX=0.15;entryY=1.025;entryDx=0;entryDy=0;entryPerimeter=0;" edge="1" parent="5zqTVPVsU2g5JCUqdkIN-1" target="Ar_MdsimDqRM08C0ZZ3F-5">
          <mxGeometry relative="1" as="geometry">
            <mxPoint x="1215" y="166.5" as="targetPoint" />
            <mxPoint x="1119" y="232.5" as="sourcePoint" />
          </mxGeometry>
        </mxCell>
        <mxCell id="Ar_MdsimDqRM08C0ZZ3F-4" value="" style="ellipse;whiteSpace=wrap;html=1;aspect=fixed;" vertex="1" parent="5zqTVPVsU2g5JCUqdkIN-1">
          <mxGeometry x="1285" y="46.5" width="40" height="40" as="geometry" />
        </mxCell>
        <mxCell id="Ar_MdsimDqRM08C0ZZ3F-5" value="" style="ellipse;whiteSpace=wrap;html=1;aspect=fixed;" vertex="1" parent="5zqTVPVsU2g5JCUqdkIN-1">
          <mxGeometry x="1285" y="106.5" width="40" height="40" as="geometry" />
        </mxCell>
        <mxCell id="Ar_MdsimDqRM08C0ZZ3F-6" value="..." style="text;html=1;align=center;verticalAlign=middle;resizable=0;points=[];autosize=1;strokeColor=none;fillColor=none;" vertex="1" parent="5zqTVPVsU2g5JCUqdkIN-1">
          <mxGeometry x="1290" y="174.5" width="30" height="30" as="geometry" />
        </mxCell>
        <mxCell id="Ar_MdsimDqRM08C0ZZ3F-7" value="" style="ellipse;whiteSpace=wrap;html=1;aspect=fixed;" vertex="1" parent="5zqTVPVsU2g5JCUqdkIN-1">
          <mxGeometry x="1285" y="226.5" width="40" height="40" as="geometry" />
        </mxCell>
        <mxCell id="Ar_MdsimDqRM08C0ZZ3F-8" style="rounded=0;orthogonalLoop=1;jettySize=auto;html=1;exitX=0.675;exitY=-0.075;exitDx=0;exitDy=0;entryX=0;entryY=1;entryDx=0;entryDy=0;exitPerimeter=0;" edge="1" parent="5zqTVPVsU2g5JCUqdkIN-1" target="Ar_MdsimDqRM08C0ZZ3F-4">
          <mxGeometry relative="1" as="geometry">
            <mxPoint x="1301" y="157.5" as="targetPoint" />
            <mxPoint x="1112" y="223.5" as="sourcePoint" />
          </mxGeometry>
        </mxCell>
        <mxCell id="Ar_MdsimDqRM08C0ZZ3F-9" style="rounded=0;orthogonalLoop=1;jettySize=auto;html=1;exitX=1;exitY=1;exitDx=0;exitDy=0;entryX=0;entryY=0;entryDx=0;entryDy=0;" edge="1" parent="5zqTVPVsU2g5JCUqdkIN-1" target="Ar_MdsimDqRM08C0ZZ3F-7">
          <mxGeometry relative="1" as="geometry">
            <mxPoint x="1301" y="90.5" as="targetPoint" />
            <mxPoint x="1119" y="140.5" as="sourcePoint" />
          </mxGeometry>
        </mxCell>
        <mxCell id="Ar_MdsimDqRM08C0ZZ3F-10" style="rounded=0;orthogonalLoop=1;jettySize=auto;html=1;exitX=1;exitY=1;exitDx=0;exitDy=0;entryX=0.5;entryY=0;entryDx=0;entryDy=0;" edge="1" parent="5zqTVPVsU2g5JCUqdkIN-1" target="Ar_MdsimDqRM08C0ZZ3F-7">
          <mxGeometry relative="1" as="geometry">
            <mxPoint x="1311" y="100.5" as="targetPoint" />
            <mxPoint x="1119" y="80.5" as="sourcePoint" />
          </mxGeometry>
        </mxCell>
        <mxCell id="Ar_MdsimDqRM08C0ZZ3F-11" style="rounded=0;orthogonalLoop=1;jettySize=auto;html=1;exitX=1;exitY=1;exitDx=0;exitDy=0;entryX=0;entryY=0;entryDx=0;entryDy=0;" edge="1" parent="5zqTVPVsU2g5JCUqdkIN-1" target="Ar_MdsimDqRM08C0ZZ3F-5">
          <mxGeometry relative="1" as="geometry">
            <mxPoint x="1321" y="110.5" as="targetPoint" />
            <mxPoint x="1119" y="80.5" as="sourcePoint" />
          </mxGeometry>
        </mxCell>
        <mxCell id="Ar_MdsimDqRM08C0ZZ3F-12" style="rounded=0;orthogonalLoop=1;jettySize=auto;html=1;exitX=1;exitY=0;exitDx=0;exitDy=0;entryX=-0.025;entryY=0.725;entryDx=0;entryDy=0;entryPerimeter=0;" edge="1" parent="5zqTVPVsU2g5JCUqdkIN-1" target="Ar_MdsimDqRM08C0ZZ3F-4">
          <mxGeometry relative="1" as="geometry">
            <mxPoint x="1331" y="120.5" as="targetPoint" />
            <mxPoint x="1119" y="112.5" as="sourcePoint" />
          </mxGeometry>
        </mxCell>
        <mxCell id="Ar_MdsimDqRM08C0ZZ3F-13" value="" style="shape=curlyBracket;whiteSpace=wrap;html=1;rounded=1;flipH=1;labelPosition=right;verticalLabelPosition=middle;align=left;verticalAlign=middle;size=0.5;direction=north;" vertex="1" parent="5zqTVPVsU2g5JCUqdkIN-1">
          <mxGeometry x="1275" y="276.5" width="60" height="20" as="geometry" />
        </mxCell>
        <mxCell id="Ar_MdsimDqRM08C0ZZ3F-14" value="&lt;font style=&quot;font-size: 16px;&quot;&gt;10&lt;/font&gt;" style="text;html=1;align=center;verticalAlign=middle;resizable=0;points=[];autosize=1;strokeColor=none;fillColor=none;" vertex="1" parent="5zqTVPVsU2g5JCUqdkIN-1">
          <mxGeometry x="1285" y="311.5" width="40" height="30" as="geometry" />
        </mxCell>
        <mxCell id="pMx2o8hE4cloU2ISpAwe-0" style="edgeStyle=orthogonalEdgeStyle;rounded=0;orthogonalLoop=1;jettySize=auto;html=1;exitX=1;exitY=0.5;exitDx=0;exitDy=0;" edge="1" parent="5zqTVPVsU2g5JCUqdkIN-1" target="pMx2o8hE4cloU2ISpAwe-4">
          <mxGeometry relative="1" as="geometry">
            <mxPoint x="925" y="65" as="sourcePoint" />
          </mxGeometry>
        </mxCell>
        <mxCell id="pMx2o8hE4cloU2ISpAwe-1" style="edgeStyle=orthogonalEdgeStyle;rounded=0;orthogonalLoop=1;jettySize=auto;html=1;exitX=1;exitY=0.5;exitDx=0;exitDy=0;entryX=0;entryY=0.5;entryDx=0;entryDy=0;" edge="1" parent="5zqTVPVsU2g5JCUqdkIN-1" target="pMx2o8hE4cloU2ISpAwe-5">
          <mxGeometry relative="1" as="geometry">
            <mxPoint x="925" y="125" as="sourcePoint" />
          </mxGeometry>
        </mxCell>
        <mxCell id="pMx2o8hE4cloU2ISpAwe-2" style="edgeStyle=orthogonalEdgeStyle;rounded=0;orthogonalLoop=1;jettySize=auto;html=1;exitX=1;exitY=0.5;exitDx=0;exitDy=0;" edge="1" parent="5zqTVPVsU2g5JCUqdkIN-1" target="pMx2o8hE4cloU2ISpAwe-7">
          <mxGeometry relative="1" as="geometry">
            <mxPoint x="925" y="245" as="sourcePoint" />
          </mxGeometry>
        </mxCell>
        <mxCell id="pMx2o8hE4cloU2ISpAwe-3" style="rounded=0;orthogonalLoop=1;jettySize=auto;html=1;exitX=1;exitY=0;exitDx=0;exitDy=0;entryX=0.15;entryY=1.025;entryDx=0;entryDy=0;entryPerimeter=0;" edge="1" parent="5zqTVPVsU2g5JCUqdkIN-1" target="pMx2o8hE4cloU2ISpAwe-5">
          <mxGeometry relative="1" as="geometry">
            <mxPoint x="1015" y="165" as="targetPoint" />
            <mxPoint x="919" y="231" as="sourcePoint" />
          </mxGeometry>
        </mxCell>
        <mxCell id="pMx2o8hE4cloU2ISpAwe-4" value="" style="ellipse;whiteSpace=wrap;html=1;aspect=fixed;" vertex="1" parent="5zqTVPVsU2g5JCUqdkIN-1">
          <mxGeometry x="1085" y="45" width="40" height="40" as="geometry" />
        </mxCell>
        <mxCell id="pMx2o8hE4cloU2ISpAwe-5" value="" style="ellipse;whiteSpace=wrap;html=1;aspect=fixed;" vertex="1" parent="5zqTVPVsU2g5JCUqdkIN-1">
          <mxGeometry x="1085" y="105" width="40" height="40" as="geometry" />
        </mxCell>
        <mxCell id="pMx2o8hE4cloU2ISpAwe-6" value="..." style="text;html=1;align=center;verticalAlign=middle;resizable=0;points=[];autosize=1;strokeColor=none;fillColor=none;" vertex="1" parent="5zqTVPVsU2g5JCUqdkIN-1">
          <mxGeometry x="1090" y="173" width="30" height="30" as="geometry" />
        </mxCell>
        <mxCell id="pMx2o8hE4cloU2ISpAwe-7" value="" style="ellipse;whiteSpace=wrap;html=1;aspect=fixed;" vertex="1" parent="5zqTVPVsU2g5JCUqdkIN-1">
          <mxGeometry x="1085" y="225" width="40" height="40" as="geometry" />
        </mxCell>
        <mxCell id="pMx2o8hE4cloU2ISpAwe-8" style="rounded=0;orthogonalLoop=1;jettySize=auto;html=1;exitX=0.675;exitY=-0.075;exitDx=0;exitDy=0;entryX=0;entryY=1;entryDx=0;entryDy=0;exitPerimeter=0;" edge="1" parent="5zqTVPVsU2g5JCUqdkIN-1" target="pMx2o8hE4cloU2ISpAwe-4">
          <mxGeometry relative="1" as="geometry">
            <mxPoint x="1101" y="156" as="targetPoint" />
            <mxPoint x="912" y="222" as="sourcePoint" />
          </mxGeometry>
        </mxCell>
        <mxCell id="pMx2o8hE4cloU2ISpAwe-9" style="rounded=0;orthogonalLoop=1;jettySize=auto;html=1;exitX=1;exitY=1;exitDx=0;exitDy=0;entryX=0;entryY=0;entryDx=0;entryDy=0;" edge="1" parent="5zqTVPVsU2g5JCUqdkIN-1" target="pMx2o8hE4cloU2ISpAwe-7">
          <mxGeometry relative="1" as="geometry">
            <mxPoint x="1101" y="89" as="targetPoint" />
            <mxPoint x="919" y="139" as="sourcePoint" />
          </mxGeometry>
        </mxCell>
        <mxCell id="pMx2o8hE4cloU2ISpAwe-10" style="rounded=0;orthogonalLoop=1;jettySize=auto;html=1;exitX=1;exitY=1;exitDx=0;exitDy=0;entryX=0.5;entryY=0;entryDx=0;entryDy=0;" edge="1" parent="5zqTVPVsU2g5JCUqdkIN-1" target="pMx2o8hE4cloU2ISpAwe-7">
          <mxGeometry relative="1" as="geometry">
            <mxPoint x="1111" y="99" as="targetPoint" />
            <mxPoint x="919" y="79" as="sourcePoint" />
          </mxGeometry>
        </mxCell>
        <mxCell id="pMx2o8hE4cloU2ISpAwe-11" style="rounded=0;orthogonalLoop=1;jettySize=auto;html=1;exitX=1;exitY=1;exitDx=0;exitDy=0;entryX=0;entryY=0;entryDx=0;entryDy=0;" edge="1" parent="5zqTVPVsU2g5JCUqdkIN-1" target="pMx2o8hE4cloU2ISpAwe-5">
          <mxGeometry relative="1" as="geometry">
            <mxPoint x="1121" y="109" as="targetPoint" />
            <mxPoint x="919" y="79" as="sourcePoint" />
          </mxGeometry>
        </mxCell>
        <mxCell id="pMx2o8hE4cloU2ISpAwe-12" style="rounded=0;orthogonalLoop=1;jettySize=auto;html=1;exitX=1;exitY=0;exitDx=0;exitDy=0;entryX=-0.025;entryY=0.725;entryDx=0;entryDy=0;entryPerimeter=0;" edge="1" parent="5zqTVPVsU2g5JCUqdkIN-1" target="pMx2o8hE4cloU2ISpAwe-4">
          <mxGeometry relative="1" as="geometry">
            <mxPoint x="1131" y="119" as="targetPoint" />
            <mxPoint x="919" y="111" as="sourcePoint" />
          </mxGeometry>
        </mxCell>
        <mxCell id="pMx2o8hE4cloU2ISpAwe-13" value="" style="shape=curlyBracket;whiteSpace=wrap;html=1;rounded=1;flipH=1;labelPosition=right;verticalLabelPosition=middle;align=left;verticalAlign=middle;size=0.5;direction=north;" vertex="1" parent="5zqTVPVsU2g5JCUqdkIN-1">
          <mxGeometry x="1075" y="275" width="60" height="20" as="geometry" />
        </mxCell>
        <mxCell id="pMx2o8hE4cloU2ISpAwe-14" value="&lt;font style=&quot;font-size: 16px;&quot;&gt;32&lt;/font&gt;" style="text;html=1;align=center;verticalAlign=middle;resizable=0;points=[];autosize=1;strokeColor=none;fillColor=none;" vertex="1" parent="5zqTVPVsU2g5JCUqdkIN-1">
          <mxGeometry x="1085" y="305" width="40" height="30" as="geometry" />
        </mxCell>
      </root>
    </mxGraphModel>
  </diagram>
  <diagram id="a3ltNH3-s5CFHNGcy5HC" name="neyron">
    <mxGraphModel grid="1" page="1" gridSize="10" guides="1" tooltips="1" connect="1" arrows="1" fold="1" pageScale="1" pageWidth="827" pageHeight="1169" math="0" shadow="0">
      <root>
        <mxCell id="0" />
        <mxCell id="1" parent="0" />
        <mxCell id="rp_R1Kq0Tky8GJ1O0L0v-1" value="x1" style="text;html=1;align=center;verticalAlign=middle;resizable=0;points=[];autosize=1;strokeColor=none;fillColor=none;" vertex="1" parent="1">
          <mxGeometry x="240" y="158" width="40" height="30" as="geometry" />
        </mxCell>
        <mxCell id="rp_R1Kq0Tky8GJ1O0L0v-16" style="rounded=0;orthogonalLoop=1;jettySize=auto;html=1;exitX=1;exitY=0.5;exitDx=0;exitDy=0;" edge="1" parent="1" source="rp_R1Kq0Tky8GJ1O0L0v-2" target="rp_R1Kq0Tky8GJ1O0L0v-3">
          <mxGeometry relative="1" as="geometry" />
        </mxCell>
        <mxCell id="rp_R1Kq0Tky8GJ1O0L0v-2" value="w1" style="ellipse;whiteSpace=wrap;html=1;aspect=fixed;" vertex="1" parent="1">
          <mxGeometry x="320" y="127" width="50" height="50" as="geometry" />
        </mxCell>
        <mxCell id="rp_R1Kq0Tky8GJ1O0L0v-23" style="edgeStyle=orthogonalEdgeStyle;rounded=0;orthogonalLoop=1;jettySize=auto;html=1;exitX=1;exitY=0.5;exitDx=0;exitDy=0;entryX=0;entryY=0.5;entryDx=0;entryDy=0;" edge="1" parent="1" source="rp_R1Kq0Tky8GJ1O0L0v-3" target="rp_R1Kq0Tky8GJ1O0L0v-22">
          <mxGeometry relative="1" as="geometry" />
        </mxCell>
        <mxCell id="rp_R1Kq0Tky8GJ1O0L0v-3" value="сум-матор" style="ellipse;whiteSpace=wrap;html=1;aspect=fixed;" vertex="1" parent="1">
          <mxGeometry x="450" y="231" width="50" height="50" as="geometry" />
        </mxCell>
        <mxCell id="rp_R1Kq0Tky8GJ1O0L0v-6" style="edgeStyle=orthogonalEdgeStyle;rounded=0;orthogonalLoop=1;jettySize=auto;html=1;exitX=1;exitY=0.5;exitDx=0;exitDy=0;" edge="1" parent="1" source="rp_R1Kq0Tky8GJ1O0L0v-4" target="rp_R1Kq0Tky8GJ1O0L0v-2">
          <mxGeometry relative="1" as="geometry" />
        </mxCell>
        <mxCell id="rp_R1Kq0Tky8GJ1O0L0v-4" value="" style="ellipse;whiteSpace=wrap;html=1;aspect=fixed;" vertex="1" parent="1">
          <mxGeometry x="254" y="146" width="12" height="12" as="geometry" />
        </mxCell>
        <mxCell id="rp_R1Kq0Tky8GJ1O0L0v-7" value="x2" style="text;html=1;align=center;verticalAlign=middle;resizable=0;points=[];autosize=1;strokeColor=none;fillColor=none;" vertex="1" parent="1">
          <mxGeometry x="240" y="231" width="40" height="30" as="geometry" />
        </mxCell>
        <mxCell id="rp_R1Kq0Tky8GJ1O0L0v-8" value="w2" style="ellipse;whiteSpace=wrap;html=1;aspect=fixed;" vertex="1" parent="1">
          <mxGeometry x="320" y="200" width="50" height="50" as="geometry" />
        </mxCell>
        <mxCell id="rp_R1Kq0Tky8GJ1O0L0v-9" style="edgeStyle=orthogonalEdgeStyle;rounded=0;orthogonalLoop=1;jettySize=auto;html=1;exitX=1;exitY=0.5;exitDx=0;exitDy=0;" edge="1" parent="1" source="rp_R1Kq0Tky8GJ1O0L0v-10" target="rp_R1Kq0Tky8GJ1O0L0v-8">
          <mxGeometry relative="1" as="geometry" />
        </mxCell>
        <mxCell id="rp_R1Kq0Tky8GJ1O0L0v-10" value="" style="ellipse;whiteSpace=wrap;html=1;aspect=fixed;" vertex="1" parent="1">
          <mxGeometry x="254" y="219" width="12" height="12" as="geometry" />
        </mxCell>
        <mxCell id="rp_R1Kq0Tky8GJ1O0L0v-11" value="xn" style="text;html=1;align=center;verticalAlign=middle;resizable=0;points=[];autosize=1;strokeColor=none;fillColor=none;" vertex="1" parent="1">
          <mxGeometry x="240" y="361" width="40" height="30" as="geometry" />
        </mxCell>
        <mxCell id="rp_R1Kq0Tky8GJ1O0L0v-12" value="wn" style="ellipse;whiteSpace=wrap;html=1;aspect=fixed;" vertex="1" parent="1">
          <mxGeometry x="320" y="330" width="50" height="50" as="geometry" />
        </mxCell>
        <mxCell id="rp_R1Kq0Tky8GJ1O0L0v-13" style="edgeStyle=orthogonalEdgeStyle;rounded=0;orthogonalLoop=1;jettySize=auto;html=1;exitX=1;exitY=0.5;exitDx=0;exitDy=0;" edge="1" parent="1" source="rp_R1Kq0Tky8GJ1O0L0v-14" target="rp_R1Kq0Tky8GJ1O0L0v-12">
          <mxGeometry relative="1" as="geometry" />
        </mxCell>
        <mxCell id="rp_R1Kq0Tky8GJ1O0L0v-14" value="" style="ellipse;whiteSpace=wrap;html=1;aspect=fixed;" vertex="1" parent="1">
          <mxGeometry x="254" y="349" width="12" height="12" as="geometry" />
        </mxCell>
        <mxCell id="rp_R1Kq0Tky8GJ1O0L0v-15" value="..." style="text;html=1;align=center;verticalAlign=middle;resizable=0;points=[];autosize=1;strokeColor=none;fillColor=none;" vertex="1" parent="1">
          <mxGeometry x="285" y="278" width="30" height="30" as="geometry" />
        </mxCell>
        <mxCell id="rp_R1Kq0Tky8GJ1O0L0v-17" style="rounded=0;orthogonalLoop=1;jettySize=auto;html=1;exitX=1;exitY=0.5;exitDx=0;exitDy=0;entryX=0;entryY=0.5;entryDx=0;entryDy=0;" edge="1" parent="1" source="rp_R1Kq0Tky8GJ1O0L0v-8" target="rp_R1Kq0Tky8GJ1O0L0v-3">
          <mxGeometry relative="1" as="geometry">
            <mxPoint x="380" y="162" as="sourcePoint" />
            <mxPoint x="467" y="248" as="targetPoint" />
          </mxGeometry>
        </mxCell>
        <mxCell id="rp_R1Kq0Tky8GJ1O0L0v-18" style="rounded=0;orthogonalLoop=1;jettySize=auto;html=1;exitX=1;exitY=0.5;exitDx=0;exitDy=0;entryX=0.14;entryY=1;entryDx=0;entryDy=0;entryPerimeter=0;" edge="1" parent="1" source="rp_R1Kq0Tky8GJ1O0L0v-12" target="rp_R1Kq0Tky8GJ1O0L0v-3">
          <mxGeometry relative="1" as="geometry">
            <mxPoint x="390" y="172" as="sourcePoint" />
            <mxPoint x="477" y="258" as="targetPoint" />
          </mxGeometry>
        </mxCell>
        <mxCell id="rp_R1Kq0Tky8GJ1O0L0v-19" value="w1*x1" style="text;html=1;align=center;verticalAlign=middle;resizable=0;points=[];autosize=1;strokeColor=none;fillColor=none;" vertex="1" parent="1">
          <mxGeometry x="390" y="158" width="60" height="30" as="geometry" />
        </mxCell>
        <mxCell id="rp_R1Kq0Tky8GJ1O0L0v-20" value="w2*x2" style="text;html=1;align=center;verticalAlign=middle;resizable=0;points=[];autosize=1;strokeColor=none;fillColor=none;" vertex="1" parent="1">
          <mxGeometry x="370" y="248" width="60" height="30" as="geometry" />
        </mxCell>
        <mxCell id="rp_R1Kq0Tky8GJ1O0L0v-21" value="wn*xn" style="text;html=1;align=center;verticalAlign=middle;resizable=0;points=[];autosize=1;strokeColor=none;fillColor=none;" vertex="1" parent="1">
          <mxGeometry x="390" y="331" width="60" height="30" as="geometry" />
        </mxCell>
        <mxCell id="rp_R1Kq0Tky8GJ1O0L0v-26" style="edgeStyle=orthogonalEdgeStyle;rounded=0;orthogonalLoop=1;jettySize=auto;html=1;exitX=1;exitY=0.5;exitDx=0;exitDy=0;" edge="1" parent="1" source="rp_R1Kq0Tky8GJ1O0L0v-22" target="rp_R1Kq0Tky8GJ1O0L0v-24">
          <mxGeometry relative="1" as="geometry" />
        </mxCell>
        <mxCell id="rp_R1Kq0Tky8GJ1O0L0v-22" value="b" style="ellipse;whiteSpace=wrap;html=1;aspect=fixed;" vertex="1" parent="1">
          <mxGeometry x="550" y="231" width="50" height="50" as="geometry" />
        </mxCell>
        <mxCell id="rp_R1Kq0Tky8GJ1O0L0v-28" style="edgeStyle=orthogonalEdgeStyle;rounded=0;orthogonalLoop=1;jettySize=auto;html=1;exitX=1;exitY=0.5;exitDx=0;exitDy=0;" edge="1" parent="1" source="rp_R1Kq0Tky8GJ1O0L0v-24">
          <mxGeometry relative="1" as="geometry">
            <mxPoint x="790" y="256" as="targetPoint" />
          </mxGeometry>
        </mxCell>
        <mxCell id="rp_R1Kq0Tky8GJ1O0L0v-24" value="ReLU" style="rounded=0;whiteSpace=wrap;html=1;" vertex="1" parent="1">
          <mxGeometry x="660" y="236.5" width="80" height="39" as="geometry" />
        </mxCell>
        <mxCell id="rp_R1Kq0Tky8GJ1O0L0v-25" value="s" style="text;html=1;align=center;verticalAlign=middle;resizable=0;points=[];autosize=1;strokeColor=none;fillColor=none;" vertex="1" parent="1">
          <mxGeometry x="505" y="228" width="30" height="30" as="geometry" />
        </mxCell>
        <mxCell id="rp_R1Kq0Tky8GJ1O0L0v-27" value="s + b" style="text;html=1;align=center;verticalAlign=middle;resizable=0;points=[];autosize=1;strokeColor=none;fillColor=none;" vertex="1" parent="1">
          <mxGeometry x="602" y="228" width="50" height="30" as="geometry" />
        </mxCell>
        <mxCell id="rp_R1Kq0Tky8GJ1O0L0v-29" value="y" style="text;html=1;align=center;verticalAlign=middle;resizable=0;points=[];autosize=1;strokeColor=none;fillColor=none;" vertex="1" parent="1">
          <mxGeometry x="745" y="228" width="30" height="30" as="geometry" />
        </mxCell>
        <mxCell id="rp_R1Kq0Tky8GJ1O0L0v-30" value="&lt;div&gt;функция&amp;nbsp;&lt;/div&gt;&lt;div&gt;активации&lt;/div&gt;" style="text;html=1;align=center;verticalAlign=middle;resizable=0;points=[];autosize=1;strokeColor=none;fillColor=none;" vertex="1" parent="1">
          <mxGeometry x="660" y="170" width="80" height="40" as="geometry" />
        </mxCell>
        <mxCell id="rp_R1Kq0Tky8GJ1O0L0v-31" value="смещение" style="text;html=1;align=center;verticalAlign=middle;resizable=0;points=[];autosize=1;strokeColor=none;fillColor=none;" vertex="1" parent="1">
          <mxGeometry x="537" y="189" width="80" height="30" as="geometry" />
        </mxCell>
        <mxCell id="rp_R1Kq0Tky8GJ1O0L0v-32" value="Веса" style="text;html=1;align=center;verticalAlign=middle;resizable=0;points=[];autosize=1;strokeColor=none;fillColor=none;" vertex="1" parent="1">
          <mxGeometry x="320" y="70" width="50" height="30" as="geometry" />
        </mxCell>
        <mxCell id="rp_R1Kq0Tky8GJ1O0L0v-33" value="&lt;div&gt;входные&amp;nbsp;&lt;/div&gt;&lt;div&gt;значения&lt;/div&gt;" style="text;html=1;align=center;verticalAlign=middle;resizable=0;points=[];autosize=1;strokeColor=none;fillColor=none;" vertex="1" parent="1">
          <mxGeometry x="220" y="87" width="80" height="40" as="geometry" />
        </mxCell>
      </root>
    </mxGraphModel>
  </diagram>
</mxfile>
